<?xml version="1.0" encoding="UTF-8"?>
<svg xmlns="http://www.w3.org/2000/svg" version="1.1" viewBox="0 0 706.86 190.38">
  <!-- Generator: Adobe Illustrator 29.7.1, SVG Export Plug-In . SVG Version: 2.1.1 Build 8)  -->
  <defs>
    <style>
      .st0 {
        fill: #04ff76;
      }

      .st1 {
        fill: #ff5f03;
      }

      .st2 {
        fill: #ff93fe;
      }

      .st3 {
        fill: #ffba92;
      }

      .st4 {
        fill: #ff03fd;
      }

      .st5 {
        fill: #92ffc4;
      }

      .st6 {
        fill: #016dca;
      }

      .st7 {
        fill: #04afef;
      }

      .st8 {
        fill: #fbe79c;
      }

      .st9 {
        fill: #93f7f3;
      }

      .st10 {
        fill: #03ebe4;
      }

      .st11 {
        fill: #91dcf8;
      }

      .st12 {
        fill: #ec038a;
      }

      .st13 {
        fill: #f793cd;
      }

      .st14 {
        fill: #f5c718;
      }

      .st15 {
        fill: #04cfe9;
      }

      .st16 {
        display: none;
      }
    </style>
  </defs>
  <g id="Layer_2" class="st16">
    <path class="st11" d="M-1221.54,1723.55v-53.98c8.84-.35,15.42-3.62,18.98-12,4.54-10.69,4.93-34.95,7.63-48.35,49.56-245.65,253.41-368.22,497.51-330.96,462.24,70.56,458.4,777.83-11.67,838.93-233.88,30.4-434.49-87.43-483.84-323.28-3.34-15.96-4.64-45.64-9.59-58.39-3.18-8.2-10.42-12.28-19.02-11.96ZM-812.17,1412.23c-304.8,24.95-330.49,499.03-31.95,562.62,228.12,48.59,393.53-151.24,330.72-368.8-39.73-137.61-159.03-205.26-298.76-193.82Z"/>
    <path class="st3" d="M-1363.46,379.92c3.47-.31,6.14.66,9.91-1.04,2.09-.94,10.08-10.35,10.08-11.95v-104.97l338.89-.08c182-4.06,271.86,249.61,160.77,374.92-12.68,14.3-35.04,21.13-31.81,41.92,1.57,10.09,24.73,23.06,32.86,31.13,133.08,132.11,10.51,373.17-167.81,375.97l-332.9-.08V446.91c0-5.66-13.74-14.83-19.99-15v-51.99ZM-1196.12,396.35c-9.28,2.81-12.67,11.65-13.52,20.47-5.19,53.6,4.08,115.55.1,170.05,1.42,12.45,8.22,19.93,20.89,21.09,33.19,3.04,149.85,4.03,178.59-3.5,102.78-26.94,94.01-198.52-14.62-208.5-54.35-5-116.31,3.31-171.44.4ZM-1196.12,742.25c-7.91,1.77-12.58,11.1-13.47,18.52,4.49,53.94-5.85,117.2.04,170.01,1.45,13,7.09,20.51,20.89,21.09,63.83-8.06,167.1,19.49,219-23.07,71.42-58.57,40.21-173.46-51.02-186.95l-175.45.41Z"/>
    <path class="st8" d="M497.5,975.76c7.49-.55,19.99-7.26,19.99-15V263.96l342.89-.08c238.18,15.57,290.72,362.71,78.84,458.92-14.97,6.8-36.76,6.61-37.83,27.86l185.77,335.07h-149.92l-169.85-322.96c-3.86-4.13-11.48-6.33-17.04-6.95-16.86-1.89-63.25-2.06-79.79.18-9.1,1.23-21.16,8.95-21.16,18.82v310.91h-131.93v-42.99c0-1.23-6.13-10.56-8.03-11.96-3.95-2.91-7.3-3.04-11.96-3.04v-51.99ZM656.03,623.24c3.12,2.89,9.93,4.68,14.28,4.73,52.9-3.74,111.81,4.66,163.98-.14,123.49-11.37,131.47-222.86-11.88-231.99-40.11-2.55-110.91-3.82-150.1-.02-15.85,1.54-21.6,9.54-22.97,25.01-5.36,60.79,3.07,131.21,1.43,192.67,1.54,2.87,2.97,7.6,5.26,9.73Z"/>
    <path class="st13" d="M-222.09,1499.61c5.77-.86,17.99-6.8,17.99-13v-198.94l332.9-.08c283.79,16.52,285.93,449.7,31.32,489.36-64.72,10.08-139.91-3.29-205.27,2.62-7.41.67-25.02,5.76-25.02,14.96v314.91h-133.93v-544.85c0-5.95-11.78-12.62-17.99-13,2.79-14.16-3.33-33.11-2-45.99.07-.72,3.03-3.65,2-6ZM-52.72,1420.11c-8.85,1.6-16.92,9.54-17.51,18.48,4.41,61.75-5.72,131.26-.03,192.07,1.14,12.2,5.59,20.74,18.97,21.01,53.34-3.84,113.22,4.93,165.76-.34,121.89-12.23,127.48-221.33-9.78-231.67-50.69-3.82-106.23,2.4-157.41.45Z"/>
    <path class="st9" d="M-350.02,1105.72c.44-7.34-5.84-19.99-12.99-19.99h-266.85V263.96H-238.09v131.96h-240.87c-6.36,0-19.07,13.13-17.08,20.9,4.67,54.55-5.92,118.66.1,172.04.44,3.93,1.38,8.99,3.92,12.07,1.08,1.31,10.41,6.93,11.07,6.93h210.88v133.96h-212.88c-3.72,0-14.46,11.66-13.04,16.95,3.94,56.06-5.08,118.85-.05,174.09.58,6.35,6.31,18.9,13.09,18.9H-222.09v133.96h-62.96c-6.21,0-12.82,13.82-12.99,19.99h-51.97Z"/>
    <path class="st2" d="M161.69,415.91c-.02-13.67-8.01-18.55-20.98-20-13.7-1.53-57.23-3.62-62.08,11.9l-.94,183.1c-.94,6.73,9.43,16.95,15.04,16.95h210.88v133.96H88.73c-2.45,0-12.33,10.68-11.08,14.92,4.06,56.73-5.1,120.23,0,176.13.58,6.35,6.31,18.9,13.09,18.9h258.86v133.96H-56.19V263.96h391.78v131.96h-104.94c-7.48,0-16.77,12.46-16.99,19.99h-51.97Z"/>
    <path class="st5" d="M459.52,1949.49c5.46.42,11.41.41,15.96-3.04l10.94-18.88c65.59,36.84,148.23,59.27,223.94,53.89,125.24-8.9,156.85-146.38,39.71-201.64-76.13-35.91-150.63-50.67-213.67-114.17-101.52-102.26-64.23-285.71,57.71-354.32,91.01-51.22,204.32-31.55,298.97-1.46l-13.8,125.76c-80.1-27.38-238.15-63.92-263.29,53.54-23.48,109.69,83.61,126.84,156.71,160.05,122.96,55.86,214.04,140.44,179.2,287.92-37.64,159.36-199.52,197.69-342.83,171.67-48.28-8.77-97.17-24.86-140.65-47.34-1.6-17.66,14.3-54.17-14.9-56l6-55.98Z"/>
  </g>
  <g id="Layer_3" class="st16">
    <g>
      <path class="st1" d="M-765.79,559.87c-.55,2.68-1.35,5.34-2,8-1.45,5.93-2.32,12.14-4,17.99-.42,1.48-1.34,3.84-2,6-1.54,5.08-5.72,8.52-6,16l-15.99,29.99c-3.33,3.45-4.04,5.78-6,8-5.17,5.89-9.26,12.36-13.99,17.99-.61.73-1.39,1.3-2,2-1.27,1.47-7.95,5.33-7.95,7,1.86,3.09,5.76,4.8,7.95,7,2.62,2.64,4.44,5.67,8,8,.87,6.14,7.4,8.77,9.99,12,.6.75,1.45,1.31,2,2,3.15,3.99,5.55,13.41,11.99,16,.61,1.88,1.73,3.17,2,4,2.21,6.71,4.82,7.52,6,10,.67,1.41,1.27,2.62,2,4,2.14,4.07,3.23,7.28,6,12,1.4,2.39-.03,4.88,4,8-1.39,3.08,1.74,5.24,2,6,1.55,4.5,2.44,15.7,6,17.99-1.45,3.5,1.52,6.09,2,8,1.96,7.81,5.29,22.48,6,29.99.25,2.62-.16,5.36,0,8,.82,13.7.91,32.33,0,45.99-.23,3.48-1.81,6.13-2,8-1.01,10.22-1.72,22.07-4,31.99-.3,1.29-1.4,3.68-2,6-3.44,13.3-8.72,25.41-13.99,37.99-1.4,3.35-2.42,6.63-4,10-1.89,4.02-3.93,8.07-6,12-5.25,9.98-11.55,20.78-17.99,29.99-2.63,3.76-5.59,8.92-8,12-6.54,8.38-16.67,17.48-23.99,25.99-.6.7-1.4,1.24-2,2-2.78,3.51-3.04,2.67-6,8-10.8,5.22-13.47,9.88-21.99,16-3.81,2.73-8.06,5.38-11.99,8-3.53,2.34-8.22,3.05-9.99,8-4.12.15-17.5,7.08-19.99,10l-4,2c-5.43-.26-10.16,2.32-13.99,6-5.06-.99-8.5,2.74-11.99,4-3.16,1.14-8.36,3.49-9.99,4s-4.91-.95-6,2l-9.99,2c-1.28.17-2.82-.25-4,0-6.64,1.41-13.22,3.15-19.99,4-3.83.48-9.62,1.81-11.99,2-1.32.11-2.68-.08-4,0-2.65.17-5.34-.11-8,0-119.04,5.03-241.49-3.85-360.9.11l-11.84-8.15-.17-673.89c1.92-5.87,11.06-10.04,17.11-9.88s19.99,9.33,19.99,15v638.82l332.9.08c178.32-2.79,300.9-243.85,167.81-375.97-8.13-8.07-31.29-21.05-32.86-31.13-3.23-20.79,19.13-27.62,31.81-41.92,111.1-125.31,21.23-378.98-160.77-374.92l-338.89.08v104.97c0,1.6-7.99,11.01-10.08,11.95-3.77,1.7-6.44.74-9.91,1.04-10.13.9-16.63-1.03-18.03-12.96-4.69-40.16,3.65-88.98-.06-130.1-.04-6,5.17-9.59,9.99-12l374.98-.98c175.17,14.23,264.35,170.99,230.79,335.99Z"/>
      <path class="st1" d="M-1196.12,742.25l175.45-.41c91.23,13.49,122.44,128.39,51.02,186.95-51.9,42.56-155.18,15.01-219,23.07-13.81-.58-19.44-8.09-20.89-21.09-5.89-52.81,4.45-116.07-.04-170.01.89-7.42,5.55-16.75,13.47-18.52ZM-1169.57,913.78h140.92c36.6,0,62.34-43.12,58.94-76.96-2.41-24.04-29.89-57.01-54.95-57.01h-144.92v133.96Z"/>
      <path class="st1" d="M-1196.12,396.35c55.14,2.91,117.1-5.39,171.44-.4,108.62,9.99,117.4,181.56,14.62,208.5-28.73,7.53-145.4,6.55-178.59,3.5-12.68-1.16-19.47-8.64-20.89-21.09,3.98-54.5-5.29-116.45-.1-170.05.85-8.82,4.24-17.65,13.52-20.47ZM-1169.57,569.87h136.92c59.83,0,76.16-96.66,27.66-127.64-3.13-2-19-8.32-21.66-8.32h-142.92v135.96Z"/>
    </g>
    <g>
      <path class="st14" d="M1099.17,589.87c-1.95.73-1.58,2.46-2,4-5.97,21.97-16.54,46.32-27.98,65.98-1.22,2.1-6.85,4.64-6,10-4.59,1.65-18.07,22.63-22.96,28.02-25.75,28.4-50.2,41.83-82.98,59.95-1.53.84-4.78-.14-5.94,3.25l1.94,4.74c17.21,31.3,33.93,63.15,51.97,93.97,1.69,2.89,3.58,5.66,6,8,.49,3.04,1.61,5.32,2.88,8.05,17.34,37.04,44.76,77.47,65.08,113.92,1.57,2.81,3.35,4.84,4,6,8.16,14.63,56.76,99.35,57.55,107.44.36,3.64-1.72,6.94-1.58,10.52l-2,4c-4.62,2.57-8.13,7.18-14.89,6.1l-206.56-.54c-39.58-70.25-76.58-142.21-114.36-213.5-1.33-2.51-3.18-4.47-4-6-19.04-35.86-35.35-73.55-56.97-107.97h-50.97v312.91c0,5.61-10.21,15.99-16.94,15.04l-183.45-.58c-6.48-2.14-10.42-7.92-11.36-14.59-1.66-11.82-1.84-54.2-.01-65.73,1.57-9.93,10.15-15.11,19.87-15.11,4.66,0,8.01.13,11.96,3.04,1.89,1.39,8.03,10.73,8.03,11.96v42.99h131.93v-310.91c0-9.87,12.06-17.58,21.16-18.82,16.53-2.24,62.92-2.07,79.79-.18,5.56.62,13.18,2.82,17.04,6.95l169.85,322.96h149.92l-185.77-335.07c1.07-21.24,22.85-21.06,37.83-27.86,211.87-96.22,159.33-443.36-78.84-458.92l-342.89.08v696.81c0,7.73-12.5,14.45-19.99,15-.64.05-1.36.05-2,0-8.4-.61-13.41-4.34-17.1-11.89l.63-729.38c3.88-7.47,11.16-10.53,19.39-10.59,115.32,4.61,235.07-5.91,349.86.1,170.04,8.9,279.22,146.7,260.63,314.64-1.59,14.38-9.81,39.63-9.75,51.23Z"/>
      <path class="st14" d="M656.03,623.24c-2.29-2.13-3.72-6.86-5.26-9.73,1.64-61.47-6.79-131.88-1.43-192.67,1.36-15.47,7.11-23.48,22.97-25.01,39.19-3.8,109.99-2.54,150.1.02,143.35,9.12,135.36,220.62,11.88,231.99-52.16,4.8-111.08-3.6-163.98.14-4.34-.05-11.16-1.84-14.28-4.73ZM689.4,589.87h138.92c66.54,0,84.87-118.34,23.74-147.71-2.16-1.04-14.9-6.24-15.74-6.24h-146.92v153.96Z"/>
    </g>
    <path class="st10" d="M-350.02,1105.72c-.48,8.1-4.08,12.03-10.04,16.95l-292.84,1.09c-6.38-.15-11.74-4.09-14.05-9.94l-.46-878.43c2.05-8.92,12.63-10.82,20.48-11.51H-221.02c12.62-.1,22.18,8.41,22.91,21.08-3.79,54.02,5.05,114.84.08,168.03-.68,7.24-6.98,22.92-15.07,22.92h-244.86v133.96h214.88c3.79,0,12.22,10.04,11.04,14.95-3.98,56.7,5.14,120.22.05,176.09-.58,6.35-6.31,18.9-13.09,18.9h-212.88v133.96H-197.11c5.07,0,14.22,13.07,12.99,19-3.84,54.66,5.11,116.21.08,170.03-.93,9.89-4.12,19.06-15.18,20.8-14.96,2.36-68.2,2-83.88.15-10.04-1.18-15.23-8.35-14.96-18.03.18-6.17,6.78-19.99,12.99-19.99h62.96v-133.96h-260.85c-6.78,0-12.51-12.55-13.09-18.9-5.03-55.24,3.99-118.03.05-174.09-1.42-5.29,9.32-16.95,13.04-16.95h212.88v-133.96h-210.88c-.65,0-9.98-5.61-11.07-6.93-2.54-3.08-3.48-8.14-3.92-12.07-6.02-53.39,4.57-117.49-.1-172.04-1.99-7.77,10.73-20.9,17.08-20.9h240.87v-131.96h-391.78v821.77h266.85c7.15,0,13.43,12.65,12.99,19.99Z"/>
    <path class="st4" d="M373.57,421.91c-4.27,11.31-10.94,13.06-21.99,14-26.64,2.27-93.45,3.42-118.75-.18-9.64-1.37-19.47-9.41-19.17-19.81.22-7.53,9.51-19.99,16.99-19.99h104.94v-131.96H-56.19v821.77h405.77v-133.96H90.73c-6.78,0-12.51-12.55-13.09-18.9-5.09-55.9,4.07-119.4,0-176.13-1.25-4.24,8.63-14.92,11.08-14.92h214.88v-133.96H92.73c-5.6,0-15.98-10.22-15.04-16.95l.94-183.1c4.85-15.52,48.38-13.43,62.08-11.9,12.97,1.45,20.97,6.33,20.98,20,.03,24.54-26.79,19.89-43.98,19.99l-2,2v131.96h214.88c3.41,0,10.49,12.34,11.04,16.95,6.41,54.12-4.92,120.58,0,176.04-2.77,16.43-12.44,16.27-26.03,16.95-.66.03-1.33-.02-2,0-65.09,2.36-130.75-1.76-195.89,0l-2,2v131.97s261.85-.01,261.85-.01c9.2,7.21,11.07,12.46,11.99,23.99,4.26,52.98-3.18,111.38,0,164.96-.97,7.42-3.98,17.62-11.9,20.09l-463.8-.15-8.15-11.85V240.87c-.69-13.07,10.07-16.02,21.01-16.98l432.9,1.02c7.37,2.89,13.75,7.25,13.98,16.01l-.04,180.99Z"/>
    <g>
      <path class="st7" d="M-695.83,1239.68c3.29.41,5.89,1.7,8,2,7.57,1.08,23.84,4.53,29.98,4l4,2c15.1,3.78,31.3,6.9,45.97,12,4.06,1.41,9.4,4.37,13.99,6,7.86,2.79,25.26,12.13,31.98,12,.75,3.79,4.17,2.99,6,4,20.02,11.04,47.56,31.88,65.96,39.99.87,2.87,3.08,3.97,6,4,1.09,1.81,1.84,3.2,4,4l6,4c2.13,3.86,4.18,3.96,6,6,4.15,4.66,7.77,7.78,11.99,12,3.24,3.24,8.85,6.74,11.99,10,4.82,4.99,9.21,10.78,13.99,16,5.64,6.15,8.86,12.97,15.99,17.99.03,2.92,1.13,5.13,4,6,4.2,11.53,22.79,32.04,29.98,43.99,2.41,4.01,5.75,9.97,8,14,1.17,2.11,2.6,5.33,4,8,1.29,2.44,2.79,5.5,4,8s3.03,5.72,4,8c.9,2.13-.97,6.99,4,8,2.32,10.51,6.71,18.22,9.99,27.99.87,2.58,1.16,5.41,2,8,29.8,91.57,35.8,161.9,21.99,257.93-1.53,10.67-6.62,23.3-6,33.99.04.66-.09,1.35,0,2l-20.49,58.48c-37.03,95.69-113.19,185.07-205.39,231.44-121.26,60.98-294.75,64.4-419.7,12.93-139.51-57.46-235.64-189.01-261.29-336.47-3.39-19.5-16.42-63.24,13.36-64.35,8.6-.32,15.84,3.76,19.02,11.96,4.95,12.75,6.25,42.43,9.59,58.39,49.35,235.85,249.96,353.68,483.84,323.28,470.07-61.09,473.91-768.37,11.67-838.93-244.1-37.26-447.95,85.31-497.51,330.96-2.7,13.4-3.09,37.66-7.63,48.35-3.56,8.38-10.14,11.65-18.98,12-3.44.14-6.68-1.57-9.99-2l-6-6c-5.52-16.81-.55-38.71,2.63-56.35,9.67-53.7,29.93-105.92,56.99-152.93,8.04-13.98,32.36-43.65,36.32-54.64,2.87-.87,3.97-3.08,4-6,3.38-2.43,3.85-3.99,6-6,2.46-2.31,6.27-3.01,6-8,8.12-6.18,26.75-23.79,31.98-31.99,6.07-1.67,8.38-5.81,11.99-10,.61-.7,1.42-1.25,2-2,3.95-.14,6.48-2.53,8-6,12.34-7.22,23.85-17.08,36.15-24.82,7.17-4.51,36.92-19.34,39.81-23.16l4-2c4.48.22,59.48-22.06,71.53-25.42,75.23-20.99,147.17-22.21,224.31-12.57Z"/>
      <path class="st7" d="M-812.17,1412.23c139.74-11.44,259.03,56.2,298.76,193.82,62.81,217.56-102.59,417.39-330.72,368.8-298.54-63.59-272.85-537.67,31.95-562.62ZM-802.18,1450.22c-289.35,22.1-287,479.37,11.42,493.25,181.87,8.46,287.54-156.74,240.68-324.73-32.67-117.13-132.62-177.65-252.11-168.52Z"/>
    </g>
    <g>
      <path class="st12" d="M-232.09,1499.61c-4.49-4.63-10.36-6.88-10.04-14.95,4.84-70.27-6.29-148.8-.05-218.08.76-8.43,2.86-13.77,11.52-16.47l367.45-.51c334.27,24.24,330.36,554.26-10,570.01-52.3,2.42-106.51-1.97-158.99-.08v314.91c0,2.43-10.39,14.55-14.89,13.1l-180.05-.06c-6.38-.15-11.74-4.09-14.05-9.94l.61-577.44c3.99-7.53,10.45-9,18.48-8.5,6.21.38,17.99,7.04,17.99,13v544.85H-70.18v-314.91c0-9.2,17.61-14.29,25.02-14.96,65.36-5.91,140.55,7.46,205.27-2.62,254.62-39.66,252.47-472.85-31.32-489.36l-332.9.08v198.94c0,6.2-12.22,12.14-17.99,13-3.09.46-6.79-.32-9.99,0Z"/>
      <path class="st12" d="M-52.72,1420.11c51.18,1.95,106.72-4.27,157.41-.45,137.25,10.34,131.67,219.44,9.78,231.67-52.54,5.27-112.42-3.51-165.76.34-13.38-.27-17.83-8.81-18.97-21.01-5.69-60.81,4.44-130.32.03-192.07.59-8.94,8.66-16.88,17.51-18.48ZM-32.2,1613.58H108.72c64.76,0,82.22-118.36,22.35-148.32-1.86-.93-13.58-5.64-14.35-5.64H-32.2v153.96Z"/>
    </g>
    <path class="st0" d="M505.5,1689.56c-106.32-110.26-81.48-295.17,35.04-387.84,97.14-77.26,223.49-70.36,336.75-37.04,9.49,2.79,44.6,12.88,50.55,16.9,13.27,8.96,3.26,48.83,1.42,64.07-.16,1.3.16,2.7,0,4-4.13,33.98-8.16,73.43-14.27,106.69-1.28,6.95-2.49,17.24-7.83,22.16-11.23,10.35-23.92,1.24-35.86-2.88-1.38-.48-2.62-1.53-4-2-16.17-5.51-31.62-9.78-47.97-14-1.28-.33-3.22-1.34-6-2-62.06-14.79-171.11-29.17-159.92,68.99,5.6,49.09,96.48,69.02,135.28,86.62,122.42,55.5,217.04,138.27,208.53,284.27-.78,13.34-3.27,28.89-6,41.99-.68,3.28-1.22,6.78-2,10-25.92,106.27-118.68,185.25-225.87,201.94-97.22,15.14-214.3-5.74-302.55-48.27-12.24-5.9-34.21-13.57-35.19-28.96l7.78-57.88c3.92-8.88,10.94-11.43,20.13-10.85,29.2,1.83,13.29,38.34,14.9,56,43.48,22.47,92.37,38.57,140.65,47.34,143.31,26.02,305.18-12.31,342.83-171.67,34.84-147.48-56.24-232.06-179.2-287.92-73.1-33.21-180.19-50.36-156.71-160.05,25.14-117.46,183.19-80.92,263.29-53.54l13.8-125.76c-94.65-30.09-207.95-49.76-298.97,1.46-121.94,68.61-159.23,252.06-57.71,354.32,63.05,63.5,137.54,78.26,213.67,114.17,117.14,55.26,85.53,192.74-39.71,201.64-75.72,5.38-158.35-17.05-223.94-53.89l-10.94,18.88c-4.55,3.45-10.5,3.46-15.96,3.04-3.78-.29-6.84-.43-9.92-3.07-11.33-9.71-1.2-46.67-1.19-61.03,17.14-28.45,45.77,2.57,65.04,13.15,56.91,31.25,214.09,76.11,259.89,13.95,28.8-39.09-.9-78.7-37.22-96.73-81-40.21-152.09-50.66-222.63-118.21-2.5-2.39-5.59-5.5-8-8Z"/>
  </g>
  <g id="Layer_4">
    <g>
      <path class="st15" d="M147.25,0H0c1.83,8.69,4.01,17.39,6.57,26.09,21.9,74.46,62.84,124.66,113.43,164.29h285.8c-59.41-36.89-130.13-65.33-188-103.44-33.46-22.04-57.1-52.79-70.55-86.94Z"/>
      <path class="st6" d="M579.06,0h-288.22c3.01,1.92,6.13,3.83,9.35,5.75,60.38,35.9,128.08,66.14,187.01,103.43,32.8,20.76,56.49,49.3,70.81,81.21h148.85c-9.53-40.35-26.98-79.92-53.1-116.61-20.69-29.05-46.3-52.94-74.7-73.77Z"/>
    </g>
  </g>
</svg>