<?xml version="1.0" encoding="UTF-8"?>
<svg id="Layer_1" xmlns="http://www.w3.org/2000/svg" version="1.1" viewBox="0 0 565.6 772.14">
  <!-- Generator: Adobe Illustrator 29.5.1, SVG Export Plug-In . SVG Version: 2.1.0 Build 141)  -->
  <defs>
    <style>
      .st0 {
        fill: #016dca;
      }

      .st1 {
        fill: #04cfe9;
      }
    </style>
  </defs>
  <path class="st1" d="M250.59.05c108.71-2.22,191.56,73.04,284.36,117.81,40.91,27.52,26.48,91.85-21.21,101.17-16.52,3.23-28.87-1.74-43.37-8.8-52.02-25.33-103.19-62.38-155.64-85.99-48.62-21.88-104.65-15.69-147.29,16.07-80.22,59.75-74.06,182.16,8.63,236.63,50.13,33.02,112.59,56.75,161.72,90.46,59.58,40.88,11.63,125.62-52.52,98.53C175.13,498.72,51.32,467.12,10.79,329.33-37.24,166.04,80.84,3.51,250.59.05Z"/>
  <path class="st0" d="M246.72,202.3c10.59-1.43,22.04-.22,31.77,4.17,79.34,50.83,182.34,81.02,238.71,160.17,105.65,148.36,30.2,357.13-147.49,398.65-137.44,32.11-229.37-56.07-342.82-113.64-50.12-44.34,2.97-123.14,63.13-91.88,53.86,25.49,106.24,63.91,160.12,88.23,47.4,21.4,103.23,16.41,145.34-14.17,83.44-60.6,77.97-184.69-8.61-239.49-46.11-29.18-99.08-52.84-146.33-80.93-24.73-14.7-42.44-28.89-39.67-61.08,2-23.17,22.32-46.87,45.83-50.05Z"/>
</svg>